<svg width="46" height="32" viewBox="0 0 46 32" fill="none" xmlns="http://www.w3.org/2000/svg">
<g id="Payment method icon">
<rect x="0.5" y="0.5" width="44.3333" height="31" rx="3.5" fill="white"/>
<rect x="0.5" y="0.5" width="44.3333" height="31" rx="3.5" stroke="#F2F4F7"/>
<g id="Mastercard">
<path id="Left" fill-rule="evenodd" clip-rule="evenodd" d="M22.9053 22.4396C21.3266 23.7704 19.2787 24.5737 17.0409 24.5737C12.0478 24.5737 8 20.5741 8 15.6404C8 10.7066 12.0478 6.70703 17.0409 6.70703C19.2787 6.70703 21.3266 7.51036 22.9053 8.84109C24.484 7.51036 26.5319 6.70703 28.7697 6.70703C33.7629 6.70703 37.8106 10.7066 37.8106 15.6404C37.8106 20.5741 33.7629 24.5737 28.7697 24.5737C26.5319 24.5737 24.484 23.7704 22.9053 22.4396Z" fill="#ED0006"/>
<path id="Right" fill-rule="evenodd" clip-rule="evenodd" d="M22.9053 22.4396C24.8492 20.8011 26.0818 18.363 26.0818 15.6404C26.0818 12.9178 24.8492 10.4796 22.9053 8.84108C24.484 7.51036 26.5319 6.70703 28.7697 6.70703C33.7628 6.70703 37.8106 10.7066 37.8106 15.6404C37.8106 20.5741 33.7628 24.5737 28.7697 24.5737C26.5319 24.5737 24.484 23.7704 22.9053 22.4396Z" fill="#F9A000"/>
<path id="Middle" fill-rule="evenodd" clip-rule="evenodd" d="M22.9053 22.4393C24.8492 20.8008 26.0818 18.3627 26.0818 15.6401C26.0818 12.9175 24.8492 10.4794 22.9053 8.84082C20.9614 10.4794 19.7288 12.9175 19.7288 15.6401C19.7288 18.3627 20.9614 20.8008 22.9053 22.4393Z" fill="#FF5E00"/>
</g>
</g>
</svg>
